<svg version="1.0" xmlns="http://www.w3.org/2000/svg" width="85.333" height="85.333" viewBox="0 0 64 64"><path d="M22.5 3c.3.5 0 .7-.8.4-1.5-.5-6.6 3.3-10.7 8C6.3 17-.9 39.3.4 44.4 1 46.7 7.8 52 10.3 52c.7 0 1.7.4 2.3 1 .5.5 4.5 1.2 8.9 1.5 4.4.3 11 .8 14.7 1.1 5.9.4 7.6.2 13-2.2 7-3.1 10.3-5.6 12.4-9.6 1.7-3.3 1.8-9.7.2-13.5-3.5-8.6-8.1-17.3-8.8-16.8-.5.3-1.2 0-1.6-.6-.4-.8-.3-.9.4-.5s1.2.3 1.2-.3c0-1.2-5.5-5.2-6.4-4.6-.3.3-.4.2-.1-.1.7-1-1.7-2.8-5.6-4.2-4.3-1.5-19.3-1.7-18.4-.2zm.9 13.3c1.4 1.3 4.3 3 6.6 3.7 3.9 1.3 4.2 1.2 8.3-1.7 7.1-5.1 8-5.1 11.6.6 3.7 5.6 9.5 21.6 8.7 23.7-.9 2.4-3.5 1.5-4.1-1.4-1.5-6.7-5-16-7.3-19L44.7 19l-4.3 2.5c-5.2 3.1-9.9 3.2-15.8.3-4.3-2-4.6-2.1-6.4-.5-2.3 2.1-5.6 9.4-7.8 17-1.4 5.3-3.5 7.9-5.1 6.3-.7-.7 4.2-16.6 6.5-21.1 2.2-4.3 6.5-9.5 7.9-9.5.7 0 2.3 1 3.7 2.3zm20.4 9.9c.5.7 1.3 2.3 1.6 3.5.7 2.2.4 2.3-3.8 2.3-5.6 0-6.4-1.2-3.2-4.5 2.8-2.8 3.9-3.1 5.4-1.3zm-14 1.8c3.4 3.2 2.7 4-3.3 4-3 0-5.5-.3-5.5-.7 0-1.2 4.3-5.3 5.5-5.3.6 0 2.1.9 3.3 2zm5.2 7c0 1.3-.7 2-2 2-1.9 0-2.7-2-1.3-3.3C33 32.3 35 33.1 35 35zm-.4 8.1c-.3 1.7-.6 4.2-.6 5.5 0 1.7-.6 2.4-1.8 2.4-1.6 0-1.9-.8-1.9-4.8 0-4.6.9-6.2 3.6-6.2 1 0 1.2.8.7 3.1zM26.5 45c.9 1.5-.6 6-2.1 6s-1.8-2.7-.8-5.4c.7-1.8 2-2.1 2.9-.6zm13.3 3.3c.3 3.2 0 3.7-1.7 3.7-2.2 0-2.6-1.6-1.5-5.8.9-3.4 2.9-2.1 3.2 2.1zM21 47.5c0 1.6-2.7 3.2-3.7 2.2-.3-.4-.3-1.3 0-2.2.8-2 3.7-2 3.7 0zm24.8 2.2c-.5 2.6-3.8 2.9-3.8.4 0-1.5.6-2.1 2.1-2.1 1.4 0 1.9.5 1.7 1.7z"/></svg>