<?xml version="1.0" standalone="no"?>
<!DOCTYPE svg PUBLIC "-//W3C//DTD SVG 20010904//EN"
 "http://www.w3.org/TR/2001/REC-SVG-20010904/DTD/svg10.dtd">
<svg version="1.0" xmlns="http://www.w3.org/2000/svg"
 width="64.000000pt" height="64.000000pt" viewBox="0 0 64.000000 64.000000"
 preserveAspectRatio="xMidYMid meet">

<g transform="translate(0.000000,64.000000) scale(0.100000,-0.100000)"
fill="#000000" stroke="none">
<path d="M225 610 c3 -5 0 -7 -8 -4 -15 5 -66 -33 -107 -80 -47 -56 -119 -279
-106 -330 6 -23 74 -76 99 -76 7 0 17 -4 23 -10 5 -5 45 -12 89 -15 44 -3 110
-8 147 -11 59 -4 76 -2 130 22 70 31 103 56 124 96 17 33 18 97 2 135 -35 86
-81 173 -88 168 -5 -3 -12 0 -16 6 -4 8 -3 9 4 5 7 -4 12 -3 12 3 0 12 -55 52
-64 46 -3 -3 -4 -2 -1 1 7 10 -17 28 -56 42 -43 15 -193 17 -184 2z m9 -133
c14 -13 43 -30 66 -37 39 -13 42 -12 83 17 71 51 80 51 116 -6 37 -56 95 -216
87 -237 -9 -24 -35 -15 -41 14 -15 67 -50 160 -73 190 l-25 32 -43 -25 c-52
-31 -99 -32 -158 -3 -43 20 -46 21 -64 5 -23 -21 -56 -94 -78 -170 -14 -53
-35 -79 -51 -63 -7 7 42 166 65 211 22 43 65 95 79 95 7 0 23 -10 37 -23z
m204 -99 c5 -7 13 -23 16 -35 7 -22 4 -23 -38 -23 -56 0 -64 12 -32 45 28 28
39 31 54 13z m-140 -18 c34 -32 27 -40 -33 -40 -30 0 -55 3 -55 7 0 12 43 53
55 53 6 0 21 -9 33 -20z m52 -70 c0 -13 -7 -20 -20 -20 -19 0 -27 20 -13 33
13 14 33 6 33 -13z m-4 -81 c-3 -17 -6 -42 -6 -55 0 -17 -6 -24 -18 -24 -16 0
-19 8 -19 48 0 46 9 62 36 62 10 0 12 -8 7 -31z m-81 -19 c9 -15 -6 -60 -21
-60 -15 0 -18 27 -8 54 7 18 20 21 29 6z m133 -33 c3 -32 0 -37 -17 -37 -22 0
-26 16 -15 58 9 34 29 21 32 -21z m-188 8 c0 -16 -27 -32 -37 -22 -3 4 -3 13
0 22 8 20 37 20 37 0z m248 -22 c-5 -26 -38 -29 -38 -4 0 15 6 21 21 21 14 0
19 -5 17 -17z"/>
</g>
</svg>
